 <svg  version="1.0" xmlns="http://www.w3.org/2000/svg"  width="300.000000pt" height="450.000000pt" viewBox="0 0 300.000000 450.000000"  preserveAspectRatio="xMidYMid meet">  <g transform="translate(0.000000,450.000000) scale(0.050000,-0.050000)" fill="#427e48" stroke="none"> <path d="M2181 7061 c-14 -26 -20 -256 -16 -671 l5 -632 87 133 c359 546 1180 524 1505 -39 l58 -102 -5 670 -5 670 -804 5 c-783 5 -805 4 -825 -34z"/> <path d="M2790 6153 c-366 -122 -550 -376 -567 -782 l-9 -221 -80 -40 c-149 -75 -154 -99 -154 -762 0 -653 1 -656 159 -763 l69 -46 804 5 c1080 8 995 -56 1004 762 4 363 -1 590 -15 637 -22 76 -140 197 -192 197 -23 0 -29 30 -29 136 0 612 -488 1045 -990 877z m342 -276 c222 -55 353 -260 356 -553 l2 -174 -495 -5 -495 -6 0 157 c0 431 264 674 632 581z m4 -1187 c101 -84 95 -258 -12 -333 -39 -27 -39 -33 -9 -181 41 -207 35 -216 -123 -216 -155 0 -155 0 -112 212 33 157 32 163 -5 186 -164 103 -73 382 125 382 53 0 95 -16 136 -50z"/> <path d="M540 5480 c-46 -46 -64 -1658 -19 -1741 20 -37 49 -39 695 -39 l674 0 -5 645 c-6 727 -7 723 149 821 l76 48 0 148 0 148 -765 5 c-743 5 -766 4 -805 -35z"/> <path d="M3880 5365 l0 -155 75 -40 c161 -87 166 -115 160 -835 l-5 -635 661 0 c487 0 667 6 685 24 18 18 24 243 24 890 l0 867 -51 19 c-30 12 -362 20 -800 20 l-749 0 0 -155z"/> <path d="M2160 2814 c0 -401 8 -651 21 -675 25 -48 1568 -62 1615 -15 18 18 24 195 24 675 l0 651 -830 0 -830 0 0 -636z"/> </g> </svg> 